<svg xmlns="http://www.w3.org/2000/svg" viewBox="0 0 400 250">
  <!-- Background and base shapes -->
  <defs>
    <linearGradient id="bgGradient" x1="0%" y1="0%" x2="100%" y2="100%">
      <stop offset="0%" stop-color="#0a3d62" />
      <stop offset="100%" stop-color="#079992" />
    </linearGradient>
    <filter id="glow" x="-20%" y="-20%" width="140%" height="140%">
      <feGaussianBlur stdDeviation="5" result="blur"/>
      <feComposite in="SourceGraphic" in2="blur" operator="over"/>
    </filter>
  </defs>
  
  <!-- Neural network background pattern -->
  <g opacity="0.2">
    <circle cx="60" cy="60" r="4" fill="#ffffff"/>
    <circle cx="120" cy="40" r="4" fill="#ffffff"/>
    <circle cx="180" cy="70" r="4" fill="#ffffff"/>
    <circle cx="240" cy="50" r="4" fill="#ffffff"/>
    <circle cx="300" cy="80" r="4" fill="#ffffff"/>
    <circle cx="80" cy="120" r="4" fill="#ffffff"/>
    <circle cx="140" cy="150" r="4" fill="#ffffff"/>
    <circle cx="200" cy="130" r="4" fill="#ffffff"/>
    <circle cx="260" cy="160" r="4" fill="#ffffff"/>
    <circle cx="320" cy="140" r="4" fill="#ffffff"/>
    <circle cx="50" cy="180" r="4" fill="#ffffff"/>
    <circle cx="110" cy="200" r="4" fill="#ffffff"/>
    <circle cx="170" cy="190" r="4" fill="#ffffff"/>
    <circle cx="230" cy="210" r="4" fill="#ffffff"/>
    <circle cx="290" cy="180" r="4" fill="#ffffff"/>
    
    <!-- Connecting lines -->
    <line x1="60" y1="60" x2="120" y2="40" stroke="#ffffff" stroke-width="1"/>
    <line x1="120" y1="40" x2="180" y2="70" stroke="#ffffff" stroke-width="1"/>
    <line x1="180" y1="70" x2="240" y2="50" stroke="#ffffff" stroke-width="1"/>
    <line x1="240" y1="50" x2="300" y2="80" stroke="#ffffff" stroke-width="1"/>
    <line x1="80" y1="120" x2="140" y2="150" stroke="#ffffff" stroke-width="1"/>
    <line x1="140" y1="150" x2="200" y2="130" stroke="#ffffff" stroke-width="1"/>
    <line x1="200" y1="130" x2="260" y2="160" stroke="#ffffff" stroke-width="1"/>
    <line x1="260" y1="160" x2="320" y2="140" stroke="#ffffff" stroke-width="1"/>
    <line x1="50" y1="180" x2="110" y2="200" stroke="#ffffff" stroke-width="1"/>
    <line x1="110" y1="200" x2="170" y2="190" stroke="#ffffff" stroke-width="1"/>
    <line x1="170" y1="190" x2="230" y2="210" stroke="#ffffff" stroke-width="1"/>
    <line x1="230" y1="210" x2="290" y2="180" stroke="#ffffff" stroke-width="1"/>
    
    <!-- Cross connections -->
    <line x1="60" y1="60" x2="80" y2="120" stroke="#ffffff" stroke-width="1"/>
    <line x1="120" y1="40" x2="140" y2="150" stroke="#ffffff" stroke-width="1"/>
    <line x1="180" y1="70" x2="200" y2="130" stroke="#ffffff" stroke-width="1"/>
    <line x1="240" y1="50" x2="260" y2="160" stroke="#ffffff" stroke-width="1"/>
    <line x1="300" y1="80" x2="320" y2="140" stroke="#ffffff" stroke-width="1"/>
    <line x1="80" y1="120" x2="50" y2="180" stroke="#ffffff" stroke-width="1"/>
    <line x1="140" y1="150" x2="110" y2="200" stroke="#ffffff" stroke-width="1"/>
    <line x1="200" y1="130" x2="170" y2="190" stroke="#ffffff" stroke-width="1"/>
    <line x1="260" y1="160" x2="230" y2="210" stroke="#ffffff" stroke-width="1"/>
    <line x1="320" y1="140" x2="290" y2="180" stroke="#ffffff" stroke-width="1"/>
  </g>

  <!-- Circuit board pattern -->
  <g opacity="0.4">
    <path d="M30,100 L370,100" stroke="#00d2d3" stroke-width="2"/>
    <path d="M30,180 L370,180" stroke="#00d2d3" stroke-width="2"/>
    <path d="M100,80 L100,220" stroke="#00d2d3" stroke-width="2"/>
    <path d="M300,80 L300,220" stroke="#00d2d3" stroke-width="2"/>
    
    <!-- Circuit nodes -->
    <circle cx="100" cy="100" r="5" fill="#00d2d3"/>
    <circle cx="100" cy="180" r="5" fill="#00d2d3"/>
    <circle cx="300" cy="100" r="5" fill="#00d2d3"/>
    <circle cx="300" cy="180" r="5" fill="#00d2d3"/>
  </g>
  
  <!-- Main letters with shadow effect -->
  <g filter="url(#glow)">
    <!-- Letter A -->
    <path d="M75,180 L105,80 L135,180 M90,150 L120,150" fill="none" stroke="#ffffff" stroke-width="16" stroke-linecap="round" stroke-linejoin="round"/>
    
    <!-- Letter I -->
    <path d="M165,80 L165,180" fill="none" stroke="#ffffff" stroke-width="16" stroke-linecap="round" stroke-linejoin="round"/>
    
    <!-- Letter B -->
    <path d="M195,80 L195,180 M195,80 C240,80 240,130 195,130 M195,130 C250,130 250,180 195,180" fill="none" stroke="#ffffff" stroke-width="16" stroke-linecap="round" stroke-linejoin="round"/>
  </g>
  
  <!-- Brain icon -->
  <g transform="translate(270, 135) scale(0.4)">
    <path d="M85,40 C60,15 25,20 25,55 C10,55 0,70 10,85 C0,100 10,115 25,115 C25,150 60,155 85,130 C110,155 145,150 145,115 C160,115 170,100 160,85 C170,70 160,55 145,55 C145,20 110,15 85,40 Z" fill="none" stroke="#7bed9f" stroke-width="8" stroke-linecap="round" stroke-linejoin="round"/>
    <path d="M85,40 C70,25 55,30 45,45 M125,45 C115,30 100,25 85,40 M25,55 C15,60 10,70 15,80 M155,55 C165,60 170,70 165,80 M15,90 C10,100 15,110 25,115 M165,90 C170,100 165,110 155,115 M85,130 C70,145 55,140 45,125 M125,125 C115,140 100,145 85,130 M65,65 C55,75 55,95 65,105 M105,65 C115,75 115,95 105,105 M65,65 C75,55 95,55 105,65 M65,105 C75,115 95,115 105,105" stroke="#7bed9f" stroke-width="4" stroke-linecap="round" stroke-linejoin="round"/>
  </g>
</svg>